<?xml version="1.0" encoding="iso-8859-1"?>
<!-- Uploaded to: SVG Repo, www.svgrepo.com, Generator: SVG Repo Mixer Tools -->
<svg version="1.1" id="Layer_1" xmlns="http://www.w3.org/2000/svg" xmlns:xlink="http://www.w3.org/1999/xlink" 
	 viewBox="0 0 512 512" xml:space="preserve">
<rect x="10.5" y="69.447" style="fill:#0F8EE3;" width="491.053" height="311.348"/>
<g>
	<circle style="fill:#FFFFFF;" cx="130.296" cy="160.376" r="39.675"/>
	<circle style="fill:#FFFFFF;" cx="168.671" cy="75.214" r="33.865"/>
	<circle style="fill:#FFFFFF;" cx="130.296" cy="109.045" r="46.472"/>
	<circle style="fill:#FFFFFF;" cx="381.757" cy="160.376" r="39.675"/>
	<circle style="fill:#FFFFFF;" cx="343.371" cy="75.214" r="33.865"/>
	<circle style="fill:#FFFFFF;" cx="381.757" cy="109.045" r="46.472"/>
	<path style="fill:#FFFFFF;" d="M213.864,288.244v20.353c0,6.799-4.088,12.932-10.365,15.549l-67.241,28.017
		c-14.206,5.92-23.459,22.008-23.459,37.397v81.092h286.352V389.56c0-15.389-9.254-31.479-23.459-37.397l-67.241-28.017
		c-6.277-2.615-10.365-8.749-10.365-15.549v-20.353H213.864z"/>
</g>
<path style="fill:#434449;" d="M375.692,352.162l-67.241-28.017c-1.989-0.829-3.757-2.013-5.246-3.458l-47.133,130.112
	l-47.232-130.212c-1.51,1.489-3.308,2.71-5.342,3.558l-67.241,28.017c-14.206,5.92-23.459,22.008-23.459,37.397v81.092h286.352
	V389.56C399.151,374.17,389.896,358.08,375.692,352.162z"/>
<g>
	<polygon style="fill:#6A6A6B;" points="303.384,320.588 256.072,450.8 322.612,397.764 307.557,384.305 346.417,337.269 	"/>
	<polygon style="fill:#6A6A6B;" points="208.85,320.588 256.072,450.8 189.658,397.764 204.686,384.305 165.899,337.269 	"/>
</g>
<path style="fill:#FEBBA0;" d="M350.006,168.288v-30.443c0-51.83-42.017-93.848-93.848-93.848
	c-51.831,0-93.848,42.017-93.848,93.848h-0.368v30.443c-12.925,0-23.403,10.478-23.403,23.403c0,12.925,10.478,23.403,23.403,23.403
	v17.472c1.126,14.735,8.311,27.853,19.192,35.038l56.575,32.343c11.36,7.503,25.173,7.503,36.533,0l56.404-32.343
	c10.879-7.185,18.233-20.303,19.36-35.038v-17.472c12.925,0,23.403-10.478,23.403-23.403
	C373.409,178.766,362.931,168.288,350.006,168.288z"/>
<path d="M501.552,391.247h-69.259c-5.77,0-10.448-4.678-10.448-10.448c0-5.77,4.678-10.448,10.448-10.448h58.811V79.898h-77.653
	c-5.77,0-10.448-4.678-10.448-10.448s4.678-10.448,10.448-10.448h88.101c5.77,0,10.448,4.678,10.448,10.448v311.348
	C512,386.569,507.322,391.247,501.552,391.247z"/>
<path d="M326.152,446.099h-0.137c-5.77,0-10.448-4.678-10.448-10.448s4.678-10.448,10.448-10.448h0.137
	c5.77,0,10.448,4.678,10.448,10.448S331.923,446.099,326.152,446.099z"/>
<path d="M10.585,481.099h-0.137C4.678,481.099,0,476.422,0,470.651s4.678-10.448,10.448-10.448h0.137
	c5.77,0,10.448,4.678,10.448,10.448S16.355,481.099,10.585,481.099z"/>
<path d="M501.501,481.098h-0.137c-5.77,0-10.448-4.678-10.448-10.448c0-5.77,4.678-10.448,10.448-10.448h0.137
	c5.77,0,10.448,4.678,10.448,10.448C511.949,476.421,507.271,481.098,501.501,481.098z"/>
<path d="M256.018,261.574c-11.39,0-20.658-9.267-20.658-20.658c0-5.77,4.678-10.448,10.448-10.448h20.419
	c5.77,0,10.448,4.678,10.448,10.448C276.675,252.307,267.409,261.574,256.018,261.574z"/>
<path d="M130.295,271.096H55.918c-5.77,0-10.448-4.678-10.448-10.448c0-5.77,4.678-10.448,10.448-10.448h74.377
	c5.77,0,10.448,4.678,10.448,10.448C140.743,266.418,136.066,271.096,130.295,271.096z"/>
<path d="M45.47,331.694c0,5.77,4.678,10.448,10.448,10.448h74.377c5.77,0,10.448-4.678,10.448-10.448
	c0-5.77-4.678-10.448-10.448-10.448H55.918C50.148,321.246,45.47,325.923,45.47,331.694z"/>
<path d="M130.295,306.618H55.918c-5.77,0-10.448-4.678-10.448-10.448s4.678-10.448,10.448-10.448h74.377
	c5.77,0,10.448,4.678,10.448,10.448S136.066,306.618,130.295,306.618z"/>
<path d="M130.295,235.573H55.918c-5.77,0-10.448-4.678-10.448-10.448s4.678-10.448,10.448-10.448h74.377
	c5.77,0,10.448,4.678,10.448,10.448S136.066,235.573,130.295,235.573z"/>
<path d="M458.619,271.096h-74.377c-5.77,0-10.448-4.678-10.448-10.448c0-5.77,4.678-10.448,10.448-10.448h74.377
	c5.77,0,10.448,4.678,10.448,10.448C469.067,266.418,464.389,271.096,458.619,271.096z"/>
<path d="M458.619,306.618h-74.377c-5.77,0-10.448-4.678-10.448-10.448s4.678-10.448,10.448-10.448h74.377
	c5.77,0,10.448,4.678,10.448,10.448S464.389,306.618,458.619,306.618z"/>
<path d="M467.563,460.203h-57.964V389.56c0-20.365-12.291-39.709-29.888-47.042l-67.241-28.016
	c-2.392-0.996-3.936-3.313-3.936-5.904v-16.27l27.31-15.659c0.19-0.109,0.377-0.225,0.561-0.346
	c13.674-9.03,22.654-25.091,24.02-42.961c0.021-0.264,0.03-0.531,0.03-0.796v-8.674c7.337-2.386,13.562-7.228,17.751-13.535
	c1.183,0.085,2.366,0.14,3.551,0.14c27.638,0,50.123-22.485,50.123-50.123c0-6.381-1.222-12.69-3.571-18.576
	c6.727-9.543,10.369-20.939,10.369-32.757c0-31.387-25.534-56.92-56.92-56.92c-0.191,0-0.382,0.001-0.575,0.003
	C373.225,39.176,358.873,30.9,343.376,30.9c-13.84,0-26.515,6.343-34.771,16.825c-15.418-9.007-33.338-14.177-52.445-14.177
	c-19.181,0-37.167,5.21-52.625,14.282c-8.248-10.548-20.952-16.93-34.856-16.93c-15.497,0-29.849,8.276-37.807,21.223
	c-0.192-0.002-0.383-0.003-0.575-0.003c-31.387,0-56.92,25.534-56.92,56.92c0,11.819,3.641,23.214,10.369,32.757
	c-2.349,5.885-3.571,12.195-3.571,18.576c0,27.638,22.485,50.123,50.123,50.123c1.151,0,2.304-0.052,3.454-0.132
	c4.189,6.302,10.412,11.142,17.746,13.527v8.674c0,0.265,0.01,0.532,0.03,0.796c1.372,17.943,10.288,34.003,23.852,42.961
	c0.187,0.123,0.378,0.24,0.573,0.352l27.467,15.702v16.219c0,2.59-1.545,4.907-3.936,5.904l-67.242,28.017
	c-11.86,4.942-21.302,15.344-26.203,27.833H20.948V79.9h48.061c5.77,0,10.448-4.678,10.448-10.448s-4.678-10.448-10.448-10.448H10.5
	c-5.77,0-10.448,4.678-10.448,10.448V380.8c0,5.77,4.678,10.448,10.448,10.448h91.852v68.956H44.386
	c-5.77,0-10.448,4.678-10.448,10.448c0,5.77,4.678,10.448,10.448,10.448h423.177c5.77,0,10.448-4.678,10.448-10.448
	C478.011,464.882,473.333,460.203,467.563,460.203z M309.05,335.714l18.68,7.783l-28.194,34.157
	c-3.57,4.325-3.088,10.697,1.091,14.437l5.829,5.217l-27.822,22.197L309.05,335.714z M343.375,51.797
	c9.62,0,18.405,6.036,21.859,15.019c1.753,4.557,6.429,7.295,11.26,6.588c1.76-0.257,3.53-0.388,5.262-0.388
	c19.864,0,36.025,16.161,36.025,36.024c0,9.025-3.356,17.66-9.448,24.314c-3.09,3.375-3.624,8.369-1.319,12.321
	c2.596,4.45,3.969,9.532,3.969,14.697c0,15.439-12.035,28.111-27.214,29.15c-0.895-14.069-10.405-25.836-23.315-30.035v-21.645
	c0-30.892-13.506-58.686-34.917-77.801C329.903,54.893,336.352,51.797,343.375,51.797z M128.18,189.516
	c-15.132-1.088-27.112-13.738-27.112-29.142c0-5.165,1.372-10.247,3.969-14.697c2.307-3.952,1.772-8.947-1.319-12.321
	c-6.093-6.655-9.448-15.29-9.448-24.314c0-19.864,16.161-36.024,36.024-36.024c1.731,0,3.501,0.131,5.262,0.388
	c4.836,0.706,9.507-2.031,11.26-6.588c3.455-8.983,12.24-15.019,21.859-15.019c7.092,0,13.589,3.147,17.953,8.379
	c-20.655,18.51-33.914,45.112-34.727,74.772c-0.265,0.919-0.407,1.892-0.407,2.897v21.645
	C138.589,163.688,129.079,175.45,128.18,189.516z M172.391,232.146v-17.052c0-5.77-4.678-10.448-10.448-10.448
	c-7.143,0-12.954-5.812-12.954-12.954c0-7.142,5.812-12.954,12.954-12.954c5.77,0,10.448-4.678,10.448-10.448v-27.687
	c0.239-0.878,0.368-1.802,0.368-2.756c0-45.987,37.413-83.4,83.4-83.4s83.4,37.412,83.4,83.399v30.443
	c0,5.77,4.678,10.448,10.448,10.448c7.143,0,12.954,5.812,12.954,12.954c0,7.142-5.812,12.954-12.954,12.954
	c-5.77,0-10.448,4.678-10.448,10.448v17.05c-0.949,11.049-6.442,21.174-14.418,26.574c0,0-57.988,33.33-58.666,33.691v-9.443
	c0-5.77-4.678-10.448-10.448-10.448s-10.448,4.678-10.448,10.448v9.495c-0.714-0.376-58.942-33.749-58.942-33.749
	C178.651,253.308,173.352,243.423,172.391,232.146z M203.219,335.58l30.464,83.923l-27.822-22.197l5.829-5.217
	c4.179-3.74,4.66-10.112,1.091-14.437l-28.287-34.271L203.219,335.58z M123.246,460.203V389.56c0-11.776,7.321-23.707,17.029-27.753
	l24.056-10.023l25.942,31.431l-7.56,6.765c-2.291,2.051-3.564,5.007-3.477,8.081c0.087,3.074,1.523,5.954,3.928,7.871l66.477,53.035
	c0.621,0.495,1.287,0.902,1.98,1.236L123.246,460.203L123.246,460.203z M220.628,322.301c2.362-4.073,3.684-8.77,3.684-13.705
	v-4.274l7.938,4.538c7.043,4.574,14.882,6.928,22.751,7.11c0.337,0.032,0.678,0.051,1.024,0.051c0.37,0,0.734-0.021,1.095-0.057
	c7.814-0.212,15.593-2.563,22.585-7.107l7.931-4.548v4.288c0,5.088,1.412,9.921,3.915,14.081l-35.393,97.503L220.628,322.301z
	 M388.703,425.203h-28.751c-5.77,0-10.448,4.678-10.448,10.448s4.678,10.448,10.448,10.448h28.751v14.105h-128
	c0.535-0.259,1.054-0.561,1.549-0.916c0.143-0.102,0.277-0.214,0.414-0.324c0.003,0.001,0.005,0.003,0.008,0.004l66.477-53.035
	c2.404-1.917,3.841-4.798,3.928-7.871c0.087-3.074-1.185-6.031-3.477-8.081l-7.56-6.765l25.848-31.317l23.783,9.909
	c9.708,4.045,17.029,15.976,17.029,27.753V425.203z"/>
<path d="M294.077,181.243c-6.44,0-11.679,5.239-11.679,11.679c0,6.439,5.239,11.678,11.679,11.678
	c6.44,0,11.679-5.239,11.679-11.678C305.756,186.482,300.517,181.243,294.077,181.243z"/>
<path d="M217.872,181.243c-6.44,0-11.679,5.239-11.679,11.679c0,6.439,5.239,11.678,11.679,11.678s11.679-5.239,11.679-11.678
	C229.549,186.482,224.311,181.243,217.872,181.243z"/>
<path d="M221.369,116.154c9.601-8.355,21.891-12.956,34.606-12.956c12.715,0,25.005,4.601,34.606,12.956
	c1.979,1.722,4.422,2.567,6.855,2.567c2.918,0,5.819-1.215,7.886-3.589c3.787-4.353,3.331-10.952-1.023-14.74
	c-13.405-11.666-30.565-18.091-48.324-18.091c-17.758,0-34.919,6.424-48.324,18.09c-4.353,3.788-4.81,10.387-1.023,14.74
	C210.415,119.484,217.015,119.942,221.369,116.154z"/>
<path d="M283.707,147.345c2.918,0,5.821-1.216,7.886-3.59c3.787-4.353,3.331-10.952-1.023-14.74
	c-9.596-8.352-21.883-12.951-34.596-12.951c-12.713,0-25,4.599-34.596,12.951c-4.354,3.787-4.81,10.387-1.023,14.74
	c3.787,4.353,10.387,4.811,14.74,1.023c5.793-5.041,13.208-7.817,20.879-7.817c7.671,0,15.086,2.776,20.879,7.817
	C278.832,146.501,281.275,147.345,283.707,147.345z"/>
<path d="M312.23,154.079h-31.866c-5.77,0-10.448,4.678-10.448,10.448c0,5.77,4.678,10.448,10.448,10.448h31.866
	c5.77,0,10.448-4.678,10.448-10.448C322.678,158.756,318.001,154.079,312.23,154.079z"/>
<path d="M231.686,154.079H199.82c-5.77,0-10.448,4.678-10.448,10.448c0,5.77,4.678,10.448,10.448,10.448h31.866
	c5.77,0,10.448-4.678,10.448-10.448C242.134,158.756,237.456,154.079,231.686,154.079z"/>
</svg>